<svg width="49" height="45" viewBox="0 0 49 45" fill="none" xmlns="http://www.w3.org/2000/svg">
<path d="M9.03906 1.34783C9.03906 1.15573 9.18837 1.04424 9.37256 1.09881L47.6621 12.4429C47.8463 12.4975 47.9956 12.6975 47.9956 12.8896V40.3958C47.9956 40.5879 47.8463 40.6994 47.6621 40.6449L9.37256 29.3007C9.18838 29.2462 9.03906 29.0462 9.03906 28.8541V1.34783Z" fill="url(#paint0_linear_41096_63778)"/>
<path fill-rule="evenodd" clip-rule="evenodd" d="M26.5998 13.6675C25.8392 13.4434 24.7129 13.1114 23.9497 12.8865C23.511 12.7571 23.3135 12.8297 23.233 13.0755L22.9844 13.8657C23.745 14.0899 24.8713 14.4219 25.6344 14.6468C26.0732 14.7761 26.2707 14.7035 26.3512 14.4577L26.5998 13.6675Z" fill="#EEEEEE"/>
<path fill-rule="evenodd" clip-rule="evenodd" d="M17.5098 10.2659L17.0101 10.1184C16.0081 9.82278 15.1524 12.2644 16.3348 12.6107L17.0954 12.8351C17.5342 12.9646 17.8584 13.2298 17.7146 13.6464L17.5172 14.2193L16.7102 13.9812L16.0544 13.7798C15.2157 13.5246 14.6745 12.9241 14.4795 12.199C14.2674 11.414 14.5673 9.9974 15.4303 9.28706C15.9325 8.87454 16.6273 8.74304 17.5172 9.00562L19.1628 9.49117L18.9043 10.2053C18.7385 10.6675 18.3972 10.5277 18.2047 10.4709L17.5098 10.2659Z" fill="#EEEEEE"/>
<path fill-rule="evenodd" clip-rule="evenodd" d="M25.9514 15.4622C25.1908 15.2378 24.0645 14.9055 23.3014 14.6803C22.8625 14.5508 22.6651 14.6231 22.5847 14.868L22.3359 15.6553C23.0966 15.8797 24.223 16.212 24.986 16.4372C25.4248 16.5667 25.6223 16.4946 25.7027 16.2497L25.9514 15.4622ZM27.2118 11.8826C26.4512 11.6582 25.3249 11.3258 24.5619 11.1007C24.123 10.9712 23.9255 11.0435 23.845 11.2884L23.5964 12.0757C24.357 12.3002 25.4833 12.6325 26.2465 12.8577C26.6852 12.9871 26.8827 12.9148 26.9632 12.6701L27.2118 11.8826Z" fill="#EEEEEE"/>
<path fill-rule="evenodd" clip-rule="evenodd" d="M20.5501 11.1641L21.2109 11.359C21.774 11.5252 21.6448 12.2382 21.3595 12.887C21.1084 13.4572 20.6647 13.8973 20.1357 13.7412L19.0362 13.4168C18.5973 13.2874 18.395 13.3582 18.3097 13.6017L18.0391 14.3799L18.846 14.618L19.6335 14.8425C20.3332 15.0437 20.9036 15.1572 21.5741 14.7108C22.2811 14.2387 23.1051 12.716 22.9636 11.6544C22.854 10.8213 22.4518 10.4678 21.4765 10.1801L19.7018 9.65642L18.668 12.5857L19.3238 12.7792C19.714 12.8943 19.9114 12.9578 20.1186 12.4217L20.5501 11.1641Z" fill="#EEEEEE"/>
<path fill-rule="evenodd" clip-rule="evenodd" d="M26.1562 16.7871L27.4069 17.156L27.9432 15.6733L28.5015 15.3343L28.9428 16.9492C29.0793 17.4486 29.2183 17.6904 29.5255 17.781L30.4835 18.0636L29.4962 14.8582L31.8683 13.2542L30.3349 12.8018L28.8941 14.0179C28.7258 14.1587 28.5552 14.2962 28.3869 14.4736L28.3723 14.4693L29.0891 12.4344L27.8384 12.0654L26.1562 16.7871Z" fill="#EEEEEE"/>
<path fill-rule="evenodd" clip-rule="evenodd" d="M29.5478 7.07715C30.7469 8.53464 33.6475 11.064 37.4766 11.5765C42.1298 12.1992 46.0517 14.0689 48.0034 16.5541V12.8929C48.0034 12.7008 47.8541 12.5008 47.6699 12.4462L29.5478 7.07715Z" fill="#EAE8E8"/>
<path fill-rule="evenodd" clip-rule="evenodd" d="M35.9774 37.1833L9.37256 29.3011C9.18838 29.2465 9.03906 29.0465 9.03906 28.8544V27.0492C11.1353 26.8118 15.1108 26.739 17.8848 27.9963C19.7579 28.8453 20.8447 29.635 21.7724 30.3091C22.7298 31.0047 23.5177 31.5772 24.8253 31.9646C25.8699 32.2741 26.7303 32.2537 27.5783 32.2335C28.8205 32.204 30.0362 32.1751 31.7658 33.1846C33.7016 34.3143 35.2041 36.0702 35.9774 37.1833Z" fill="#EEEEEE"/>
<path d="M9.44005 0.952886C9.34796 0.925591 9.25118 0.978116 9.22388 1.07021C9.19659 1.1623 9.24911 1.25908 9.3412 1.28637L9.44005 0.952886ZM9.3412 1.28637L29.4995 7.26136L29.5983 6.92787L9.44005 0.952886L9.3412 1.28637Z" fill="#61EB9C"/>
<path d="M47.5581 12.6374C47.6502 12.6648 47.747 12.6124 47.7744 12.5204C47.8018 12.4283 47.7494 12.3315 47.6574 12.3041L47.5581 12.6374ZM29.4972 7.25994L47.5581 12.6374L47.6574 12.3041L29.5965 6.92658L29.4972 7.25994Z" fill="#E0E0E0"/>
<path d="M48.1349 12.7124C48.1349 12.6164 48.057 12.5385 47.9609 12.5385C47.8649 12.5385 47.787 12.6164 47.787 12.7124H48.1349ZM47.787 12.7124V16.5364H48.1349V12.7124H47.787Z" fill="#F4F4F4"/>
<path d="M47.787 40.3146C47.787 40.4107 47.8649 40.4885 47.9609 40.4885C48.057 40.4885 48.1349 40.4107 48.1349 40.3146H47.787ZM47.787 16.5342V40.3146H48.1349V16.5342H47.787Z" fill="#61EB9C"/>
<path d="M0 5.60222C0 5.41012 0.149312 5.29863 0.333497 5.3532L38.623 16.6973C38.8072 16.7519 38.9565 16.9519 38.9565 17.144V44.6502C38.9565 44.8423 38.8072 44.9538 38.623 44.8992L0.3335 33.5551C0.149315 33.5006 0 33.3006 0 33.1085V5.60222Z" fill="url(#paint1_linear_41096_63778)"/>
<path fill-rule="evenodd" clip-rule="evenodd" d="M17.5607 17.92C16.8001 17.6958 15.6738 17.3638 14.9107 17.1389C14.4719 17.0096 14.2744 17.0821 14.194 17.3279L13.9453 18.1182C14.7059 18.3423 15.8323 18.6743 16.5954 18.8992C17.0341 19.0286 17.2316 18.956 17.3121 18.7101L17.5607 17.92Z" fill="#EEEEEE"/>
<path fill-rule="evenodd" clip-rule="evenodd" d="M8.47078 14.5188L7.97099 14.3714C6.96903 14.0757 6.11332 16.5173 7.29572 16.8636L8.05633 17.088C8.49517 17.2175 8.81936 17.4828 8.67553 17.8994L8.47813 18.4723L7.67113 18.2342L7.01533 18.0328C6.17667 17.7775 5.63545 17.177 5.44046 16.4519C5.22835 15.6669 5.52821 14.2503 6.39121 13.54C6.89339 13.1275 7.58823 12.996 8.47813 13.2585L10.1237 13.7441L9.86528 14.4582C9.69948 14.9204 9.35816 14.7807 9.16561 14.7239L8.47078 14.5188Z" fill="#EEEEEE"/>
<path fill-rule="evenodd" clip-rule="evenodd" d="M16.9124 19.7147C16.1518 19.4902 15.0254 19.1579 14.2623 18.9327C13.8235 18.8033 13.6261 18.8756 13.5456 19.1204L13.2969 19.9077C14.0576 20.1322 15.1839 20.4645 15.9469 20.6896C16.3858 20.8191 16.5832 20.747 16.6637 20.5021L16.9124 19.7147ZM18.1728 16.135C17.4121 15.9106 16.2858 15.5783 15.5228 15.3531C15.0839 15.2236 14.8864 15.2959 14.806 15.5409L14.5573 16.3282C15.318 16.5526 16.4443 16.8849 17.2074 17.1101C17.6461 17.2396 17.8436 17.1673 17.9241 16.9225L18.1728 16.135Z" fill="#EEEEEE"/>
<path fill-rule="evenodd" clip-rule="evenodd" d="M11.5111 15.4165L12.1718 15.6115C12.7349 15.7776 12.6057 16.4907 12.3205 17.1394C12.0693 17.7096 11.6256 18.1498 11.0966 17.9937L9.99711 17.6693C9.55827 17.5398 9.35593 17.6106 9.27059 17.8541L9 18.6323L9.80698 18.8704L10.5944 19.0949C11.2941 19.2961 11.8646 19.4097 12.535 18.9632C13.242 18.4911 14.066 16.9685 13.9246 15.9069C13.8149 15.0737 13.4127 14.7202 12.4375 14.4325L10.6627 13.9089L9.62897 16.8382L10.2848 17.0317C10.6749 17.1468 10.8723 17.2102 11.0796 16.6742L11.5111 15.4165Z" fill="#EEEEEE"/>
<path fill-rule="evenodd" clip-rule="evenodd" d="M17.1172 21.0396L18.3679 21.4085L18.9042 19.9257L19.4624 19.5868L19.9037 21.2016C20.0403 21.701 20.1793 21.9428 20.4864 22.0334L21.4445 22.316L20.4571 19.1106L22.8292 17.5066L21.2958 17.0543L19.855 18.2703C19.6868 18.4111 19.5161 18.5487 19.3479 18.726L19.3332 18.7217L20.0501 16.6868L18.7994 16.3179L17.1172 21.0396Z" fill="#EEEEEE"/>
<path fill-rule="evenodd" clip-rule="evenodd" d="M20.5009 11.334C21.7 12.7915 24.6006 15.3209 28.4297 15.8333C33.0829 16.456 37.0049 18.3258 38.9565 20.8109V17.1497C38.9565 16.9576 38.8072 16.7576 38.623 16.7031L20.5009 11.334Z" fill="#EAE8E8"/>
<path fill-rule="evenodd" clip-rule="evenodd" d="M26.9383 41.4363L0.333498 33.554C0.149313 33.4994 0 33.2995 0 33.1074V31.3021C2.09623 31.0647 6.07178 30.992 8.84572 32.2493C10.7188 33.0983 11.8057 33.888 12.7334 34.562C13.6908 35.2577 14.4786 35.8301 15.7863 36.2176C16.8309 36.527 17.6912 36.5066 18.5393 36.4864C19.7814 36.4569 20.9971 36.428 22.7268 37.4375C24.6625 38.5672 26.165 40.3231 26.9383 41.4363Z" fill="#D2D2D2"/>
<path d="M0.400986 5.20728C0.308896 5.17999 0.212116 5.23251 0.18482 5.3246C0.157524 5.41669 0.21005 5.51347 0.302139 5.54077L0.400986 5.20728ZM0.302139 5.54077L20.4604 11.5157L20.5592 11.1823L0.400986 5.20728L0.302139 5.54077Z" fill="#61EB9C"/>
<path d="M38.519 16.8918C38.6111 16.9192 38.7079 16.8668 38.7354 16.7748C38.7628 16.6827 38.7104 16.5859 38.6183 16.5585L38.519 16.8918ZM20.4582 11.5143L38.519 16.8918L38.6183 16.5585L20.5574 11.181L20.4582 11.5143Z" fill="#E0E0E0"/>
<path d="M39.0958 16.9668C39.0958 16.8707 39.0179 16.7929 38.9219 16.7929C38.8258 16.7929 38.748 16.8707 38.748 16.9668H39.0958ZM38.748 16.9668V20.7908H39.0958V16.9668H38.748Z" fill="#F4F4F4"/>
<path d="M38.748 44.569C38.748 44.6651 38.8258 44.7429 38.9219 44.7429C39.0179 44.7429 39.0958 44.6651 39.0958 44.569H38.748ZM38.748 20.7886V44.569H39.0958V20.7886H38.748Z" fill="#61EB9C"/>
<defs>
<linearGradient id="paint0_linear_41096_63778" x1="28.5173" y1="6.77087" x2="20.8361" y2="32.6971" gradientUnits="userSpaceOnUse">
<stop stop-color="#0FA34F"/>
<stop offset="1" stop-color="#0A6E33"/>
</linearGradient>
<linearGradient id="paint1_linear_41096_63778" x1="19.4783" y1="11.0253" x2="11.797" y2="36.9515" gradientUnits="userSpaceOnUse">
<stop stop-color="#0FA34F"/>
<stop offset="1" stop-color="#0A6E33"/>
</linearGradient>
</defs>
</svg>
